<svg width="123" height="35" viewBox="0 0 123 35" fill="none" xmlns="http://www.w3.org/2000/svg">
<path d="M15.67 12.016V29.987V30.487H16.17H19.204H19.704V29.987V1.287V0.786999H19.204H14.735H14.3245L14.2446 1.18962L10.1753 21.6825L5.95874 1.18625L5.87661 0.786999H5.469H1H0.5V1.287V29.987V30.487H1H3.788H4.288V29.987V11.9622L8.0545 30.0479L8.1374 30.446H8.544H11.619H12.0299L12.1095 30.0429L15.67 12.016ZM32.7109 13.497H26.1999V4.698H34.3099H34.8099V4.198V1.287V0.786999H34.3099H22.5019H22.0019V1.287V29.987V30.487H22.5019H34.3099H34.8099V29.987V27.076V26.576H34.3099H26.1999V17.367H32.7109H33.2109V16.867V13.997V13.497H32.7109ZM48.3794 4.698V29.987V30.487H48.8794H52.0774H52.5774V29.987V1.287V0.786999H52.0774H40.3924H39.91L39.8927 1.26909L39.1137 22.9991L39.1136 23.0021C39.0722 24.3878 38.9335 25.272 38.5674 25.8191C38.2438 26.3026 37.668 26.617 36.4154 26.617H35.9154V27.117V30.028V30.528H36.4154L36.9484 30.528L36.953 30.528C39.2509 30.5065 40.8312 29.8116 41.8285 28.4235C42.7961 27.0769 43.1464 25.1647 43.229 22.871L43.229 22.8706L43.8681 4.698H48.3794ZM88.6907 34.423H89.1907V33.923V27.158V26.658H88.6907H87.0177V1.287V0.786999H86.5177H74.9967H74.5215L74.4973 1.26151L73.3903 22.9505L73.3902 22.9528C73.3134 24.6041 73.1279 25.7244 72.3861 26.658H70.7737H70.2737V27.158V33.923V34.423H70.7737H73.8487H74.3487V33.923V30.487H85.0747V33.923V34.423H85.5747H88.6907ZM78.4241 4.698H82.7787V26.658H76.684C77.2211 25.7078 77.4109 24.5289 77.5048 22.9649L77.505 22.9601L78.4241 4.698ZM101.649 10.3081V29.987V30.487H102.149H105.019H105.519V29.987V1.287V0.786999H105.019H101.452H101.094L100.979 1.12587L96.3869 14.6149L96.3868 14.6148L96.3842 14.6231L94.8182 19.4977V1.287V0.786999H94.3182H91.4892H90.9892V1.287V29.987V30.487H91.4892H94.8102H95.1756L95.2866 30.1389L99.5088 16.8985L99.5096 16.8959L101.649 10.3081ZM115.687 18.228H117.442V29.987V30.487H117.942H121.14H121.64V29.987V1.287V0.786999H121.14H114.744C112.409 0.786999 110.653 1.38207 109.489 2.62648C108.332 3.86425 107.848 5.65241 107.848 7.847V10.184C107.848 11.8152 108.133 13.1942 108.773 14.2814C109.221 15.0426 109.831 15.6407 110.6 16.0773C109.769 16.5328 109.136 17.1721 108.685 17.9755C108.059 19.0933 107.807 20.4907 107.807 22.074V26.543C107.807 27.8108 107.72 28.8938 107.285 29.7634L106.924 30.487H107.733H110.972H111.295L111.428 30.1922C111.837 29.2812 112.005 28.4635 112.005 26.502V21.992C112.005 20.4398 112.369 19.5387 112.936 19.0119C113.511 18.4781 114.402 18.228 115.687 18.228ZM54.7481 23.058C54.7481 25.3077 55.3102 27.2432 56.505 28.623C57.7095 30.0141 59.4993 30.774 61.8081 30.774C64.136 30.774 65.9362 30.0151 67.1464 28.6239C68.347 27.2438 68.9091 25.3077 68.9091 23.058V8.216C68.9091 5.94679 68.3475 4.00979 67.1457 2.63395C65.9345 1.24725 64.1338 0.5 61.8081 0.5C59.5015 0.5 57.7112 1.24818 56.5057 2.63482C55.3098 4.01036 54.7481 5.94677 54.7481 8.216V23.058ZM58.9051 8.052C58.9051 6.82124 59.1704 5.91368 59.6377 5.32315C60.0895 4.7522 60.7831 4.411 61.8081 4.411C62.856 4.411 63.5473 4.75366 63.9925 5.32141C64.4545 5.91055 64.7111 6.81742 64.7111 8.052V23.222C64.7111 24.4788 64.4538 25.3839 63.9936 25.9666C63.5504 26.5277 62.8603 26.863 61.8081 26.863C60.7789 26.863 60.0864 26.5292 59.6366 25.9648C59.1711 25.3808 58.9051 24.475 58.9051 23.222V8.052ZM117.442 4.698V14.317H115.523C114.306 14.317 113.454 14.1128 112.902 13.6383C112.366 13.1783 112.005 12.3674 112.005 10.881V8.134C112.005 6.88641 112.236 6.04091 112.663 5.51119C113.071 5.00488 113.733 4.698 114.826 4.698H117.442Z" fill="white" stroke="black"/>
</svg>
